# xmcd
#
# Track frame offsets:
#	150
#	18278
#	34156
#	52351
#	70508
#	86994
#	106866
#	124665
#	141609
#	158990
#	190618
#
# Disc length: 2938 seconds
#
# Revision: 0
# Processed by: cddbd v1.5.2PL0 Copyright (c) Steve Scherf et al.
# Submitted via: audiograbber 1.83.01
#
DISCID=990b780b
DTITLE=The Kentucky Headhunters - Soul
DYEAR=2003
DGENRE=Country
TTITLE0=Everyday People
TTITLE1=That's Alright
TTITLE2=You Got It
TTITLE3=Lonely Nights
TTITLE4=We All Need It
TTITLE5=My Sunny Days
TTITLE6=Last Night I Met Carl Perkins
TTITLE7=I Still Wanna Be Your Man
TTITLE8=Looking For Mr. Perfect
TTITLE9=Have You Ever Loved A Woman
TTITLE10=What You See, Is What You Get
EXTD=
EXTT0=
EXTT1=
EXTT2=
EXTT3=
EXTT4=
EXTT5=
EXTT6=
EXTT7=
EXTT8=
EXTT9=
EXTT10=
PLAYORDER=
